<svg xmlns="http://www.w3.org/2000/svg" viewBox="0 0 64 64" width="64" height="64">
  <title>skull pot — something is being boiled and it is not dinner</title>
  <rect width="64" height="64" rx="14" fill="#1b1210"/>
  <circle cx="51" cy="10" r="4.5" fill="#f59e0b"/>
  <circle cx="12" cy="13" r="3.5" fill="#f59e0b"/>
  <circle cx="43" cy="4" r="2.5" fill="#f59e0b"/>
  <path d="M32 9c7.2 0 13 5.6 13 12.6V31H19v-9.4C19 14.6 24.8 9 32 9z" fill="#f8fafc"/>
  <circle cx="26" cy="22" r="4" fill="#1b1210"/>
  <circle cx="38" cy="22" r="4" fill="#1b1210"/>
  <path d="M32 26.5l2.8 4.5h-5.6z" fill="#1b1210"/>
  <rect x="6" y="30" width="52" height="9" rx="4.5" fill="#e2e8f0"/>
  <path d="M12 39h40l-3.4 13.5A8 8 0 0 1 40.8 58H23.2a8 8 0 0 1-7.8-5.9z" fill="#f59e0b"/>
</svg>
